<?xml version="1.0" encoding="utf-8"?>
<!-- Generator: Adobe Illustrator 22.0.1, SVG Export Plug-In . SVG Version: 6.00 Build 0)  -->
<svg version="1.1" id="Шар_1" xmlns="http://www.w3.org/2000/svg" xmlns:xlink="http://www.w3.org/1999/xlink" x="0px" y="0px"
	 viewBox="0 0 32 32" style="enable-background:new 0 0 32 32;" xml:space="preserve">
<style type="text/css">
	.st0{fill:#FFFFFF;}
</style>
<title></title>
<g id="about">
	<path class="st0" d="M16,16c3.9,0,7-3.1,7-7s-3.1-7-7-7S9,5.1,9,9S12.1,16,16,16z M16,4c2.8,0,5,2.2,5,5s-2.2,5-5,5s-5-2.2-5-5
		S13.2,4,16,4z"/>
	<path class="st0" d="M17,18h-2C8.9,18,4,22.9,4,29c0,0.6,0.4,1,1,1h22c0.6,0,1-0.4,1-1C28,22.9,23.1,18,17,18z M6.1,28
		c0.5-4.6,4.4-8,8.9-8h2c4.6,0,8.4,3.4,8.9,8H6.1z"/>
</g>
</svg>
