<?xml version="1.0" encoding="utf-8"?>
<!-- Generator: Adobe Illustrator 22.0.1, SVG Export Plug-In . SVG Version: 6.00 Build 0)  -->
<svg version="1.1" id="Шар_1" xmlns="http://www.w3.org/2000/svg" xmlns:xlink="http://www.w3.org/1999/xlink" x="0px" y="0px"
	 viewBox="0 0 32 32" style="enable-background:new 0 0 32 32;" xml:space="preserve">
<style type="text/css">
	.st0{fill:#FFFFFF;}
	.st1{fill:none;}
</style>
<title></title>
<g id="Layer_2">
	<path class="st0" d="M16,29c-2.2,0-4-1.8-4-4c0-0.6,0.4-1,1-1h6c0.6,0,1,0.4,1,1C20,27.2,18.2,29,16,29z M14.3,26
		c0.6,1,1.8,1.3,2.7,0.7c0.3-0.2,0.6-0.4,0.7-0.7H14.3z"/>
	<path class="st0" d="M18,7h-4c-0.6,0-1-0.4-1-1c0-1.7,1.3-3,3-3s3,1.3,3,3C19,6.6,18.6,7,18,7z M16,5L16,5z"/>
	<path class="st0" d="M27,26H5c-0.6,0-1-0.4-1-1c0-2.3,1.1-4.4,3-5.8V14c0-4.9,4-9,8.9-9H16c5,0,9,4,9,9v5.3c1.9,1.3,3,3.5,3,5.8
		l0,0C28,25.6,27.6,26,27,26z M6.1,24h19.8c-0.3-1.4-1.2-2.6-2.4-3.3c-0.3-0.2-0.5-0.5-0.5-0.9V14c0-3.9-3.1-7-7-7s-7,3.1-7,7v5.8
		c0,0.4-0.2,0.7-0.5,0.9C7.3,21.4,6.4,22.6,6.1,24z"/>
</g>
<g id="frame">
	<rect class="st1" width="32" height="32"/>
</g>
</svg>
